<svg width="223" height="202" viewBox="0 0 223 202" fill="none" xmlns="http://www.w3.org/2000/svg">
<g clip-path="url(#clip0_2862_563)">
<path d="M20.3687 55.1688C20.3865 55.1419 20.4044 55.1194 20.4222 55.0925C20.4267 55.0835 20.4445 55.0611 20.4177 55.1015C20.4177 55.097 20.4267 55.0925 20.4311 55.088C20.44 55.0746 20.449 55.0656 20.4579 55.0521C20.498 55.0028 20.5382 54.9579 20.5783 54.913C20.663 54.8233 20.7478 54.7381 20.8414 54.6573C20.8727 54.6304 20.8905 54.5765 20.8905 54.5362C20.8905 54.4958 20.8727 54.4464 20.8414 54.415C20.7701 54.3477 20.6764 54.3522 20.6051 54.415C20.4044 54.5855 20.2304 54.7829 20.0788 54.9983C20.0565 55.0342 20.052 55.088 20.0609 55.1284C20.0699 55.1688 20.1011 55.2092 20.1368 55.2271C20.1769 55.2495 20.2215 55.2585 20.2661 55.2451C20.3107 55.2316 20.3375 55.2047 20.3642 55.1688H20.3687Z" fill="#E0E0E0"/>
<path d="M22.1388 55.2359C22.1611 55.4917 22.1834 55.7429 22.2057 55.9987C22.2147 56.0839 22.2771 56.1692 22.3752 56.1692C22.46 56.1692 22.5492 56.0929 22.5447 55.9987C22.5224 55.7429 22.5001 55.4917 22.4778 55.2359C22.4689 55.1507 22.4064 55.0654 22.3083 55.0654C22.2236 55.0654 22.1344 55.1417 22.1388 55.2359Z" fill="#E0E0E0"/>
<path d="M23.8595 54.7201C23.9621 54.7829 24.0602 54.8502 24.1583 54.9264C24.1761 54.9399 24.1315 54.904 24.1494 54.9175C24.1538 54.9175 24.1583 54.9264 24.1672 54.9309C24.1806 54.9399 24.194 54.9489 24.2029 54.9623C24.2252 54.9803 24.2475 54.9982 24.2698 55.0207C24.3144 55.061 24.3635 55.1014 24.4036 55.1463C24.466 55.2091 24.5775 55.2136 24.64 55.1463C24.698 55.079 24.7069 54.9713 24.64 54.9085C24.4527 54.729 24.2475 54.5675 24.0245 54.4329C23.9487 54.388 23.8372 54.415 23.797 54.4912C23.7524 54.572 23.7792 54.6707 23.855 54.7201H23.8595Z" fill="#E0E0E0"/>
<path d="M24.3871 50.8658C24.3692 50.8927 24.3514 50.9152 24.3335 50.9421C24.3291 50.9511 24.3112 50.9735 24.338 50.9331C24.338 50.9376 24.3291 50.9421 24.3246 50.9466C24.3157 50.96 24.3068 50.969 24.2979 50.9825C24.2577 51.0318 24.2176 51.0767 24.1774 51.1215C24.0927 51.2113 24.008 51.2965 23.9143 51.3773C23.8831 51.4042 23.8652 51.458 23.8652 51.4984C23.8652 51.5388 23.8831 51.5882 23.9143 51.6196C23.9857 51.6869 24.0793 51.6824 24.1507 51.6196C24.3514 51.4491 24.5253 51.2517 24.677 51.0363C24.6993 51.0004 24.7037 50.9466 24.6948 50.9062C24.6859 50.8658 24.6547 50.8254 24.619 50.8075C24.5788 50.785 24.5342 50.7761 24.4896 50.7895C24.445 50.803 24.4183 50.8299 24.3915 50.8658H24.3871Z" fill="#E0E0E0"/>
<path d="M22.615 50.7985C22.5927 50.5427 22.5704 50.2915 22.5481 50.0357C22.5392 49.9505 22.4767 49.8652 22.3786 49.8652C22.2939 49.8652 22.2047 49.9415 22.2091 50.0357C22.2314 50.2915 22.2537 50.5427 22.276 50.7985C22.285 50.8837 22.3474 50.969 22.4455 50.969C22.5303 50.969 22.6195 50.8927 22.615 50.7985Z" fill="#E0E0E0"/>
<path d="M20.8938 51.3149C20.7912 51.2521 20.6931 51.1848 20.595 51.1085C20.5771 51.095 20.6217 51.1309 20.6039 51.1175C20.5994 51.1175 20.595 51.1085 20.5861 51.104C20.5727 51.095 20.5593 51.0861 20.5504 51.0726C20.5281 51.0547 20.5058 51.0367 20.4835 51.0143C20.4389 50.9739 20.3898 50.9335 20.3497 50.8887C20.2872 50.8258 20.1757 50.8214 20.1133 50.8887C20.0553 50.956 20.0464 51.0636 20.1133 51.1264C20.3006 51.3059 20.5058 51.4674 20.7288 51.602C20.8046 51.6469 20.9161 51.62 20.9562 51.5437C21.0008 51.4629 20.9741 51.3642 20.8983 51.3149H20.8938Z" fill="#E0E0E0"/>
<path d="M24.6226 53.1808H25.2425C25.3317 53.1808 25.412 53.1046 25.412 53.0103C25.412 52.9206 25.3407 52.8398 25.2425 52.8398H24.6226C24.5334 52.8398 24.4531 52.9161 24.4531 53.0103C24.4531 53.1001 24.5245 53.1808 24.6226 53.1808Z" fill="#E0E0E0"/>
<path d="M19.4449 53.1047H20.2209C20.3101 53.1047 20.3904 53.0284 20.3904 52.9342C20.3904 52.8444 20.319 52.7637 20.2209 52.7637H19.4449C19.3557 52.7637 19.2754 52.8399 19.2754 52.9342C19.2754 53.0239 19.3467 53.1047 19.4449 53.1047Z" fill="#E0E0E0"/>
<path d="M13.1622 81.9449C13.1622 81.9449 13.1934 81.9046 13.2068 81.8821C13.1979 81.8956 13.189 81.9046 13.1801 81.918C13.2648 81.8059 13.3629 81.7071 13.47 81.6129C13.5012 81.586 13.519 81.5322 13.519 81.4918C13.519 81.4514 13.5012 81.402 13.47 81.3706C13.4387 81.3392 13.3941 81.3213 13.3495 81.3213C13.3049 81.3213 13.2648 81.3392 13.2291 81.3706C13.0909 81.4873 12.9704 81.6264 12.8679 81.7744C12.8456 81.8103 12.8411 81.8642 12.85 81.9046C12.8589 81.9449 12.8902 81.9853 12.9258 82.0033C12.966 82.0257 13.0106 82.0347 13.0552 82.0212C13.0686 82.0167 13.0819 82.0078 13.0953 82.0033C13.1221 81.9898 13.1399 81.9674 13.1533 81.9449H13.1622Z" fill="#E0E0E0"/>
<path d="M14.2463 81.9635L14.2909 82.4749C14.2909 82.5198 14.3087 82.5602 14.3399 82.5961C14.3667 82.623 14.4157 82.6454 14.4603 82.6454C14.5451 82.6454 14.6343 82.5692 14.6298 82.4749L14.5852 81.9635C14.5852 81.9186 14.5674 81.8782 14.5362 81.8423C14.5094 81.8109 14.4603 81.793 14.4157 81.793C14.331 81.793 14.2418 81.8692 14.2463 81.9635Z" fill="#E0E0E0"/>
<path d="M15.4228 81.6621C15.4942 81.707 15.5655 81.7519 15.6324 81.8057C15.6191 81.7968 15.6101 81.7878 15.5968 81.7788C15.6592 81.8282 15.7216 81.882 15.7796 81.9358C15.8108 81.9672 15.8554 81.9852 15.9 81.9852C15.9402 81.9852 15.9892 81.9672 16.0205 81.9358C16.0517 81.9044 16.0695 81.8596 16.0695 81.8147C16.0695 81.7698 16.0517 81.725 16.0205 81.6936C15.8911 81.5679 15.7484 81.4603 15.5968 81.366C15.5611 81.3436 15.5076 81.3391 15.4674 81.3481C15.4273 81.3571 15.3871 81.3885 15.3693 81.4244C15.3247 81.5051 15.3515 81.6038 15.4273 81.6532L15.4228 81.6621Z" fill="#E0E0E0"/>
<path d="M15.7572 79.0068C15.7572 79.0068 15.726 79.0472 15.7126 79.0696C15.7215 79.0562 15.7304 79.0472 15.7394 79.0337C15.6546 79.1459 15.5565 79.2446 15.4495 79.3388C15.4182 79.3658 15.4004 79.4196 15.4004 79.46C15.4004 79.5004 15.4182 79.5497 15.4495 79.5811C15.4807 79.6125 15.5253 79.6305 15.5699 79.6305C15.6145 79.6305 15.6546 79.6125 15.6903 79.5811C15.8286 79.4645 15.949 79.3254 16.0516 79.1818C16.0739 79.1459 16.0783 79.0921 16.0694 79.0517C16.0605 79.0113 16.0293 78.9709 15.9936 78.953C15.9534 78.9306 15.9088 78.9216 15.8642 78.935C15.8509 78.9395 15.8375 78.9485 15.8241 78.953C15.7973 78.9664 15.7795 78.9889 15.7661 79.0113L15.7572 79.0068Z" fill="#E0E0E0"/>
<path d="M14.6747 78.9886C14.6614 78.8181 14.6435 78.6476 14.6301 78.4771C14.6301 78.4323 14.6123 78.3919 14.5811 78.356C14.5499 78.3246 14.5053 78.3066 14.4607 78.3066C14.3759 78.3066 14.2867 78.3829 14.2912 78.4771C14.3046 78.6476 14.3224 78.8181 14.3358 78.9886C14.3358 79.0335 14.3536 79.0739 14.3848 79.1098C14.4161 79.1367 14.4607 79.1591 14.5053 79.1591C14.59 79.1591 14.6792 79.0828 14.6747 78.9886Z" fill="#E0E0E0"/>
<path d="M13.4963 79.2889C13.4249 79.244 13.3536 79.1991 13.2867 79.1453C13.3001 79.1543 13.309 79.1632 13.3224 79.1722C13.2599 79.1229 13.1975 79.069 13.1395 79.0152C13.1083 78.9838 13.0637 78.9658 13.0191 78.9658C12.9789 78.9658 12.9299 78.9838 12.8987 79.0152C12.8674 79.0466 12.8496 79.0914 12.8496 79.1363C12.8496 79.1812 12.8674 79.226 12.8987 79.2575C13.028 79.3831 13.1707 79.4908 13.3224 79.585C13.358 79.6074 13.4116 79.6119 13.4517 79.6029C13.4918 79.594 13.532 79.5626 13.5498 79.5267C13.5944 79.4459 13.5677 79.3472 13.4918 79.2978L13.4963 79.2889Z" fill="#E0E0E0"/>
<path d="M15.9624 80.6398H16.3772C16.4664 80.6398 16.5467 80.5635 16.5467 80.4693C16.5467 80.3796 16.4753 80.2988 16.3772 80.2988H15.9624C15.8732 80.2988 15.793 80.3751 15.793 80.4693C15.793 80.5591 15.8643 80.6398 15.9624 80.6398Z" fill="#E0E0E0"/>
<path d="M12.4976 80.59H13.015C13.1042 80.59 13.1844 80.5137 13.1844 80.4195C13.1844 80.3298 13.1131 80.249 13.015 80.249H12.4976C12.4084 80.249 12.3281 80.3253 12.3281 80.4195C12.3281 80.5093 12.3995 80.59 12.4976 80.59Z" fill="#E0E0E0"/>
<path d="M56.2487 77.1855C56.271 77.1541 56.2932 77.1227 56.32 77.0913L56.2665 77.1586C56.3958 76.9926 56.5385 76.8401 56.6991 76.7055C56.7615 76.6516 56.7972 76.5484 56.7972 76.4677C56.7972 76.3869 56.7615 76.2882 56.6991 76.2299C56.6367 76.1715 56.5519 76.1267 56.4627 76.1312C56.4315 76.1312 56.4048 76.1401 56.3735 76.1446C56.3156 76.1626 56.2665 76.1895 56.2264 76.2299C56.0167 76.4093 55.8339 76.6202 55.6733 76.849C55.651 76.8894 55.6376 76.9298 55.6332 76.9747C55.6242 77.0195 55.6243 77.0644 55.6376 77.1093C55.6599 77.1855 55.7179 77.2708 55.7893 77.3112C55.8651 77.3516 55.9587 77.374 56.0479 77.3471L56.1282 77.3112C56.1773 77.2798 56.2174 77.2394 56.2487 77.19V77.1855Z" fill="#E0E0E0"/>
<path d="M57.7081 77.1718C57.7304 77.4275 57.7527 77.6788 57.775 77.9345C57.7839 78.0242 57.8062 78.105 57.8731 78.1723C57.9311 78.2306 58.0247 78.2755 58.1095 78.271C58.1942 78.271 58.2879 78.2396 58.3459 78.1723C58.4038 78.1095 58.4529 78.0242 58.444 77.9345C58.4217 77.6788 58.3994 77.4275 58.3771 77.1718C58.3682 77.082 58.3459 77.0013 58.279 76.934C58.221 76.8757 58.1273 76.8308 58.0426 76.8353C57.9578 76.8353 57.8642 76.8667 57.8062 76.934C57.7482 76.9968 57.6992 77.082 57.7081 77.1718Z" fill="#E0E0E0"/>
<path d="M59.5096 76.7997C59.6166 76.867 59.7192 76.9388 59.8218 77.0151L59.7549 76.9613C59.8485 77.0331 59.9377 77.1138 60.0269 77.1946C60.0894 77.2529 60.1741 77.2933 60.2633 77.2933C60.3436 77.2933 60.4417 77.2574 60.4997 77.1946C60.5577 77.1318 60.6023 77.0465 60.5978 76.9568C60.5978 76.867 60.5666 76.7818 60.4997 76.719C60.3035 76.5305 60.0849 76.36 59.8485 76.2165C59.7772 76.1716 59.6746 76.1581 59.5899 76.1806C59.514 76.203 59.4293 76.2613 59.3892 76.3331C59.349 76.4094 59.3267 76.5036 59.3535 76.5934C59.3802 76.6786 59.4293 76.7459 59.5051 76.7953L59.5096 76.7997Z" fill="#E0E0E0"/>
<path d="M59.9724 72.7162C59.9501 72.7476 59.9278 72.7791 59.901 72.8105C59.9189 72.788 59.9367 72.7656 59.9546 72.7432C59.8252 72.9092 59.6825 73.0617 59.5219 73.1963C59.4595 73.2502 59.4238 73.3533 59.4238 73.4341C59.4238 73.5149 59.4595 73.6136 59.5219 73.6719C59.5844 73.7302 59.6691 73.7751 59.7583 73.7706C59.7895 73.7706 59.8163 73.7616 59.8475 73.7572C59.9055 73.7392 59.9546 73.7123 59.9947 73.6719C60.2043 73.4924 60.3872 73.2816 60.5477 73.0527C60.57 73.0124 60.5834 72.972 60.5879 72.9271C60.5968 72.8822 60.5968 72.8374 60.5834 72.7925C60.5611 72.7162 60.5031 72.631 60.4318 72.5906C60.356 72.5502 60.2623 72.5278 60.1731 72.5547L60.0928 72.5906C60.0438 72.622 60.0036 72.6624 59.9724 72.7118V72.7162Z" fill="#E0E0E0"/>
<path d="M58.4835 72.7343C58.4835 72.4786 58.4835 72.2229 58.4835 71.9716C58.4835 71.8864 58.4478 71.7966 58.3853 71.7338C58.3229 71.671 58.2337 71.6306 58.149 71.6351C57.9706 71.6441 57.8145 71.7832 57.8145 71.9716C57.8145 72.2273 57.8145 72.4831 57.8145 72.7343C57.8145 72.8196 57.8501 72.9093 57.9126 72.9721C57.9706 73.0305 58.0642 73.0753 58.149 73.0708C58.3274 73.0619 58.4835 72.9228 58.4835 72.7343Z" fill="#E0E0E0"/>
<path d="M56.7135 73.1019C56.6065 73.0346 56.5039 72.9628 56.4013 72.8866C56.4236 72.9045 56.4459 72.9225 56.4682 72.9404C56.3746 72.8686 56.2854 72.7879 56.1962 72.7071C56.1337 72.6488 56.049 72.6084 55.9598 72.6084C55.8795 72.6084 55.7814 72.6443 55.7234 72.7071C55.6654 72.7699 55.6208 72.8552 55.6253 72.9449C55.6253 73.0346 55.6565 73.1199 55.7234 73.1827C55.9197 73.3711 56.1382 73.5416 56.3746 73.6852C56.4459 73.7301 56.5485 73.7435 56.6333 73.7211C56.7091 73.6987 56.7938 73.6403 56.834 73.5686C56.8741 73.4923 56.8964 73.3981 56.8696 73.3083C56.8429 73.2231 56.7938 73.1558 56.718 73.1064L56.7135 73.1019Z" fill="#E0E0E0"/>
<path d="M60.3563 75.2824H60.9762C61.061 75.2824 61.1502 75.2465 61.2126 75.1837C61.2751 75.1209 61.3152 75.0311 61.3107 74.9459C61.3107 74.8606 61.2795 74.7664 61.2126 74.7081C61.1457 74.6498 61.0654 74.6094 60.9762 74.6094H60.3563C60.2716 74.6094 60.1824 74.6453 60.1199 74.7081C60.0619 74.7664 60.0173 74.8606 60.0218 74.9459C60.0218 75.0311 60.053 75.1254 60.1199 75.1837C60.1868 75.242 60.2671 75.2824 60.3563 75.2824Z" fill="#E0E0E0"/>
<path d="M55.1786 75.2062H55.9546C56.0394 75.2062 56.1286 75.1703 56.191 75.1075C56.249 75.0492 56.2936 74.955 56.2891 74.8697C56.2802 74.6858 56.1419 74.5332 55.9546 74.5332H55.1786C55.0938 74.5332 55.0046 74.5691 54.9422 74.6319C54.8798 74.6947 54.8396 74.7845 54.8441 74.8697C54.853 75.0537 54.9913 75.2062 55.1786 75.2062Z" fill="#E0E0E0"/>
<path d="M146.172 35.4093V66.2822H187.636V35.4093H146.172Z" fill="#EBEBEB"/>
<path d="M149.213 38.025V63.6709H184.594V38.025H149.213Z" fill="white" stroke="#E0E0E0" stroke-width="0.5" stroke-miterlimit="10"/>
<path d="M146.172 66.2821L149.209 63.6664V38.0204L146.172 35.4092V66.2821Z" fill="#E0E0E0"/>
<path d="M187.632 66.2825L184.59 63.6713V38.0253L187.632 35.4141C187.855 35.5038 187.632 66.287 187.632 66.287V66.2825Z" fill="#E0E0E0"/>
<path d="M155.262 47.0029H179.083" stroke="#E0E0E0" stroke-linecap="round" stroke-linejoin="round"/>
<path d="M155.262 50.0137H179.083" stroke="#E0E0E0" stroke-linecap="round" stroke-linejoin="round"/>
<path d="M162.9 53.0195H172.512" stroke="#E0E0E0" stroke-linecap="round" stroke-linejoin="round"/>
<path d="M158.909 57.3945H155.645" stroke="#E0E0E0" stroke-linecap="round" stroke-linejoin="round"/>
<path d="M177.851 55.2363C178.926 55.2363 179.8 56.0529 179.8 57.0624C179.8 58.0719 178.93 58.8885 177.851 58.8885C176.771 58.8885 175.906 58.0719 175.906 57.0624C175.906 56.0529 176.776 55.2363 177.851 55.2363Z" fill="#E0E0E0"/>
<path d="M162.9 43.624H172.512" stroke="#E0E0E0" stroke-linecap="round" stroke-linejoin="round"/>
<path d="M115.215 29.1637V48.9814H141.832V29.1637H115.215Z" fill="#EBEBEB"/>
<path d="M117.168 30.842V47.3037H139.883V30.842H117.168Z" fill="white" stroke="#E0E0E0" stroke-width="0.5" stroke-miterlimit="10"/>
<path d="M115.215 48.9818L117.164 47.3038V30.8421L115.215 29.1641V48.9818Z" fill="#E0E0E0"/>
<path d="M141.832 48.9818L139.879 47.3038V30.8421L141.832 29.1641C141.975 29.2224 141.832 48.9818 141.832 48.9818Z" fill="#E0E0E0"/>
<path d="M121.049 36.6074H136.342" stroke="#E0E0E0" stroke-linecap="round" stroke-linejoin="round"/>
<path d="M121.049 38.5371H136.342" stroke="#E0E0E0" stroke-linecap="round" stroke-linejoin="round"/>
<path d="M125.955 40.4668H132.123" stroke="#E0E0E0" stroke-linecap="round" stroke-linejoin="round"/>
<path d="M123.389 43.2754H121.293" stroke="#E0E0E0" stroke-linecap="round" stroke-linejoin="round"/>
<path d="M135.552 41.8887C136.243 41.8887 136.8 42.4136 136.8 43.0597C136.8 43.7058 136.243 44.2307 135.552 44.2307C134.86 44.2307 134.303 43.7058 134.303 43.0597C134.303 42.4136 134.86 41.8887 135.552 41.8887Z" fill="#E0E0E0"/>
<path d="M125.955 34.4355H132.123" stroke="#E0E0E0" stroke-linecap="round" stroke-linejoin="round"/>
<path d="M97.9544 8.81641H32.7402V62.7958H97.9544V8.81641Z" fill="#E6E6E6"/>
<path d="M96.1575 10.8896H35.002V60.2657H96.1575V10.8896Z" fill="#FAFAFA"/>
<path d="M86.7064 16.4346H79.9004V26.2649H86.7064V16.4346Z" fill="#F5F5F5"/>
<path d="M91.7332 23.623H81.832V37.9221H91.7332V23.623Z" fill="#E0E0E0"/>
<path d="M46.138 42.9287H39.332V52.7591H46.138V42.9287Z" fill="#F5F5F5"/>
<path d="M45.4739 22.4199H38.668V29.2666H45.4739V22.4199Z" fill="#F5F5F5"/>
<path d="M70.2122 47.8457H63.4062V54.6924H70.2122V47.8457Z" fill="#E0E0E0"/>
<path d="M90.2348 35.1035H74.7363V57.0121H90.2348V35.1035Z" fill="#F5F5F5"/>
<path d="M87.9915 38.2803H76.8594V38.5226H87.9915V38.2803Z" fill="#E0E0E0"/>
<path d="M82.5416 38.5088H82.3008V54.7327H82.5416V38.5088Z" fill="#E0E0E0"/>
<path d="M87.6529 38.5088H87.4121V54.7327H87.6529V38.5088Z" fill="#E0E0E0"/>
<path d="M78.0006 38.5088H77.7598V54.7327H78.0006V38.5088Z" fill="#E0E0E0"/>
<path d="M77.2018 38.5088H76.9609V54.7327H77.2018V38.5088Z" fill="#E0E0E0"/>
<path d="M87.4159 39.3662H77.082V39.6085H87.4159V39.3662Z" fill="#E0E0E0"/>
<path d="M72.3322 20.7598H66.9668V23.0749H72.3322V20.7598Z" fill="#F5F5F5"/>
<path d="M73.3712 38.1729H68.0059V39.972H73.3712V38.1729Z" fill="#F5F5F5"/>
<path d="M68.8842 20.002H51.459V44.6384H68.8842V20.002Z" fill="#F0F0F0"/>
<path d="M72.1759 42.1572H66.8105V43.9564H72.1759V42.1572Z" fill="#F5F5F5"/>
<path d="M73.0724 25.6914H67.707V27.4906H73.0724V25.6914Z" fill="#F5F5F5"/>
<path d="M71.8908 30.1641H66.5254V31.9632H71.8908V30.1641Z" fill="#F5F5F5"/>
<path d="M65.3867 23.0303H53.5098V25.148H65.3867V23.0303Z" fill="#E0E0E0"/>
<path d="M65.5785 32.0887H53.6971L53.5098 31.124H65.3867L65.5785 32.0887Z" fill="#E0E0E0"/>
<path d="M57.7245 27.2705H53.5098V29.3882H57.7245V27.2705Z" fill="#E0E0E0"/>
<path d="M197.988 128.728H117.373C115.933 128.728 114.76 127.548 114.76 126.099V7.97295C114.76 6.52375 115.933 5.34375 117.373 5.34375H197.988C199.428 5.34375 200.601 6.52375 200.601 7.97295V126.094C200.601 127.543 199.428 128.723 197.988 128.723V128.728ZM117.373 5.45592C115.995 5.45592 114.871 6.58657 114.871 7.97295V126.094C114.871 127.481 115.995 128.611 117.373 128.611H197.988C199.366 128.611 200.49 127.481 200.49 126.094V7.97295C200.49 6.58657 199.366 5.45592 197.988 5.45592H117.373Z" fill="#E0E0E0"/>
<path d="M105.028 128.728H24.4182C22.9777 128.728 21.8047 127.548 21.8047 126.099V7.97295C21.8047 6.52375 22.9777 5.34375 24.4182 5.34375H105.033C106.473 5.34375 107.646 6.52375 107.646 7.97295V126.094C107.646 127.543 106.473 128.723 105.033 128.723L105.028 128.728ZM24.4182 5.45592C23.0401 5.45592 21.9162 6.58657 21.9162 7.97295V126.094C21.9162 127.481 23.0401 128.611 24.4182 128.611H105.033C106.411 128.611 107.535 127.481 107.535 126.094V7.97295C107.535 6.58657 106.411 5.45592 105.033 5.45592H24.4182Z" fill="#E0E0E0"/>
<path d="M223 156.128H0V156.24H223V156.128Z" fill="#E0E0E0"/>
<path d="M30.2077 162.526H23.0449V162.639H30.2077V162.526Z" fill="#E0E0E0"/>
<path d="M99.8509 161.311H75.9766V161.423H99.8509V161.311Z" fill="#E0E0E0"/>
<path d="M46.8218 166.694H30.6543V166.807H46.8218V166.694Z" fill="#E0E0E0"/>
<path d="M188.007 161.252H168.744V161.364H188.007V161.252Z" fill="#E0E0E0"/>
<path d="M194.804 161.252H191.98V161.364H194.804V161.252Z" fill="#E0E0E0"/>
<path d="M165.064 164.047H141.029V164.159H165.064V164.047Z" fill="#E0E0E0"/>
<path d="M166.194 146.384C166.189 146.191 165.547 127.194 162.474 124.188C159.486 121.267 156.056 124.081 155.913 124.202L155.605 123.829C155.646 123.798 159.512 120.617 162.808 123.843C166.02 126.983 166.648 145.581 166.671 146.37L166.189 146.384H166.194Z" fill="#E0E0E0"/>
<path d="M166.456 150.117C166.434 149.888 164.356 127.306 172.553 117.844L172.914 118.162C164.851 127.468 166.911 149.847 166.933 150.072L166.456 150.121V150.117Z" fill="#E0E0E0"/>
<path d="M166.154 147.73L165.673 147.698C165.69 147.443 167.278 122.025 161.262 116.462L161.587 116.107C167.769 121.828 166.221 146.675 166.15 147.73H166.154Z" fill="#E0E0E0"/>
<path d="M166.939 147.716H166.457C166.461 147.012 166.653 130.545 171.305 127.862C172.34 127.266 173.352 127.167 174.316 127.566C177.125 128.737 178.521 133.771 178.579 133.982L178.115 134.108C178.102 134.059 176.728 129.087 174.133 128.01C173.317 127.669 172.447 127.759 171.546 128.28C167.135 130.824 166.939 147.546 166.939 147.712V147.716Z" fill="#E0E0E0"/>
<path d="M165.128 147.726L164.646 147.699C164.655 147.569 165.347 134.687 161.89 130.147C161.052 129.048 160.142 128.523 159.183 128.59C156.917 128.747 155.017 132.085 154.999 132.116L154.58 131.879C154.66 131.731 156.623 128.285 159.147 128.11C160.275 128.029 161.328 128.617 162.269 129.855C165.833 134.535 165.155 147.192 165.124 147.73L165.128 147.726Z" fill="#E0E0E0"/>
<path d="M165.885 149.48C165.792 148.228 163.624 118.813 167.437 113.631L167.825 113.918C164.119 118.957 166.345 149.139 166.367 149.444L165.89 149.48H165.885Z" fill="#E0E0E0"/>
<path d="M175.351 130.55C175.351 130.55 173.067 131.398 173.745 133.399C174.423 135.4 181.652 138.693 181.652 138.693C181.652 138.693 184.681 135.903 181.898 131.362C179.119 126.821 175.413 129.119 175.351 130.55Z" fill="#EBEBEB"/>
<path d="M165.412 126.741C165.412 126.741 167.847 126.637 167.986 128.746C168.124 130.855 162.714 136.692 162.714 136.692C162.714 136.692 158.852 135.288 159.681 130.02C160.511 124.753 164.81 125.435 165.412 126.736V126.741Z" fill="#EBEBEB"/>
<path d="M163.353 116.641C163.353 116.641 164.976 116.466 164.847 115.47C164.717 114.474 158.54 111.916 154.896 116.053C154.896 116.053 157.229 120.087 160.605 120.14C163.977 120.194 163.357 116.641 163.357 116.641H163.353Z" fill="#EBEBEB"/>
<path d="M166.377 114.223C166.377 114.223 164.909 114.936 164.495 114.025C164.084 113.11 167.978 107.654 173.249 109.225C173.249 109.225 173.388 113.891 170.556 115.73C167.719 117.57 166.377 114.223 166.377 114.223Z" fill="#EBEBEB"/>
<path d="M158.692 129.747C158.692 129.747 159.811 128.836 158.603 128.392C157.394 127.948 151.462 128.073 151.404 133.982C151.404 133.982 158.313 135.135 159.165 132.887C160.021 130.635 158.692 129.747 158.692 129.747Z" fill="#EBEBEB"/>
<path d="M172.776 116.493C172.776 116.493 171.656 115.582 172.865 115.138C174.074 114.694 180.006 114.819 180.064 120.728C180.064 120.728 173.155 121.881 172.303 119.634C171.447 117.381 172.776 116.493 172.776 116.493Z" fill="#EBEBEB"/>
<path d="M169.129 121.253C169.129 121.253 169.031 120.149 169.919 120.58C170.806 121.015 173.897 124.367 170.695 127.553C170.695 127.553 166.382 124.34 167.158 122.667C167.934 120.993 169.129 121.253 169.129 121.253Z" fill="#EBEBEB"/>
<path d="M157.693 122.828C157.693 122.828 158.362 121.944 157.381 121.837C156.4 121.729 152.007 122.909 153.028 127.319C153.028 127.319 158.38 126.916 158.612 125.081C158.839 123.246 157.693 122.828 157.693 122.828Z" fill="#EBEBEB"/>
<path d="M171.439 156.241H160.642L157.77 142.915H174.035L171.439 156.241Z" fill="#F0F0F0"/>
<path d="M174.971 142.723H156.787V146.554H174.971V142.723Z" fill="#E6E6E6"/>
<path d="M177.994 13.8143V29.5088H199.072V13.8143L177.994 13.8143Z" fill="#EBEBEB"/>
<path d="M179.541 15.1423V28.1807H197.528V15.1423L179.541 15.1423Z" fill="white" stroke="#E0E0E0" stroke-width="0.5" stroke-miterlimit="10"/>
<path d="M177.994 29.5089L179.542 28.1809V15.1425L177.994 13.8145V29.5089Z" fill="#E0E0E0"/>
<path d="M199.072 29.5089L197.529 28.1809V15.1425L199.072 13.8145C199.184 13.8593 199.072 29.5089 199.072 29.5089Z" fill="#E0E0E0"/>
<path d="M182.619 19.71H194.728" stroke="#E0E0E0" stroke-linecap="round" stroke-linejoin="round"/>
<path d="M182.619 21.2402H194.728" stroke="#E0E0E0" stroke-linecap="round" stroke-linejoin="round"/>
<path d="M186.5 22.7656H191.388" stroke="#E0E0E0" stroke-linecap="round" stroke-linejoin="round"/>
<path d="M184.47 24.9912H182.811" stroke="#E0E0E0" stroke-linecap="round" stroke-linejoin="round"/>
<path d="M194.099 23.8916C194.648 23.8916 195.09 24.3089 195.09 24.8203C195.09 25.3318 194.648 25.7491 194.099 25.7491C193.551 25.7491 193.109 25.3318 193.109 24.8203C193.109 24.3089 193.551 23.8916 194.099 23.8916Z" fill="#E0E0E0"/>
<path d="M186.5 17.9912H191.388" stroke="#E0E0E0" stroke-linecap="round" stroke-linejoin="round"/>
<path d="M210.85 196.661C210.85 199.609 166.371 201.996 111.499 201.996C56.628 201.996 12.1484 199.604 12.1484 196.661C12.1484 193.718 56.628 191.326 111.499 191.326C166.371 191.326 210.85 193.713 210.85 196.661Z" fill="#F5F5F5"/>
<path d="M39.3323 175.834C40.4786 175.771 41.5623 175.21 42.4053 174.43C43.2482 173.649 43.8771 172.657 44.3989 171.625C45.777 168.889 46.4416 165.793 46.3122 162.728C46.2855 162.073 46.2186 161.4 45.9376 160.808C45.6566 160.216 45.1259 159.704 44.4792 159.61C43.5114 159.471 42.6684 160.247 42.0574 161.01C39.2699 164.478 37.8382 169.014 38.1237 173.465C38.195 174.555 38.5563 175.605 39.3323 175.838" fill="#76C96D"/>
<path d="M34.2048 169.803C35.1459 167.834 35.2172 165.501 34.5928 163.405C33.9684 161.31 32.6884 159.448 31.1051 157.954C29.3657 156.312 27.1313 155.056 24.7496 155.042C23.7327 155.038 22.6311 155.311 22.0112 156.119C21.3466 156.976 21.4002 158.201 21.6945 159.246C22.1717 160.964 23.1842 162.49 24.3928 163.791C25.6015 165.092 27.0108 166.191 28.4157 167.277C29.999 168.502 31.7072 169.767 33.7008 169.92" fill="#4CAF50"/>
<path d="M34.0657 176.452C33.7847 174.241 32.0766 172.41 30.0785 171.441C28.0804 170.472 25.8147 170.234 23.5981 170.122C23.103 170.095 22.599 170.077 22.1263 170.225C21.6535 170.373 21.2164 170.719 21.0871 171.199C20.9221 171.827 21.319 172.459 21.7338 172.957C24.16 175.887 27.96 177.619 31.751 177.52C32.1881 177.507 32.6341 177.471 33.0399 177.305C33.4458 177.134 33.807 176.811 33.9274 176.39" fill="#76C96D"/>
<path d="M44.141 161.243C40.7514 169.579 38.2315 178.252 36.6304 187.113C36.5902 187.324 36.9158 187.414 36.9515 187.203C38.5526 178.342 41.0725 169.669 44.4621 161.332C44.5424 161.131 44.2213 161.045 44.141 161.243Z" fill="#263238"/>
<path d="M36.8077 184.538C36.9371 180.455 36.6115 176.327 35.4519 172.401C34.2923 168.476 32.3789 164.989 29.7208 161.992C28.0349 160.09 26.0903 158.439 24.0031 156.999C23.8247 156.877 23.6596 157.169 23.8336 157.29C27.3927 159.744 30.4834 162.854 32.6421 166.632C34.5866 170.032 35.7195 173.837 36.1967 177.718C36.4777 179.979 36.5401 182.263 36.4688 184.538C36.4598 184.753 36.7943 184.753 36.8033 184.538H36.8077Z" fill="#263238"/>
<path d="M36.5947 178.785C33.4236 175.084 28.9904 172.504 24.2048 171.642C23.9952 171.607 23.906 171.93 24.1156 171.965C28.8521 172.818 33.2229 175.357 36.3583 179.023C36.501 179.189 36.733 178.947 36.5947 178.785Z" fill="#263238"/>
<path d="M29.4229 187.423V182.631H42.6914V187.423C42.6914 187.423 42.9456 195.894 38.2671 196.665H33.8428C29.1642 195.894 29.4185 187.423 29.4185 187.423H29.4229Z" fill="#407BFF"/>
<path opacity="0.5" d="M29.4229 187.423V182.631H42.6914V187.423C42.6914 187.423 42.9456 195.894 38.2671 196.665H33.8428C29.1642 195.894 29.4185 187.423 29.4185 187.423H29.4229Z" fill="black"/>
<path d="M163.311 27.0795C170.472 24.2115 173.966 16.0469 171.115 8.84338C168.264 1.63989 160.148 -1.87465 152.987 0.993419C145.826 3.86149 142.333 12.0261 145.184 19.2296C148.035 26.4331 156.151 29.9476 163.311 27.0795Z" fill="#1764A7"/>
<path opacity="0.9" d="M158.147 26.7599C165.118 26.7599 170.769 21.0751 170.769 14.0626C170.769 7.05003 165.118 1.36523 158.147 1.36523C151.176 1.36523 145.525 7.05003 145.525 14.0626C145.525 21.0751 151.176 26.7599 158.147 26.7599Z" fill="white"/>
<g opacity="0.2">
<path d="M158.661 26.279C151.69 26.279 146.039 20.5943 146.039 13.5816C146.039 10.0102 147.506 6.77979 149.866 4.47363C147.203 6.80223 145.521 10.2345 145.521 14.0617C145.521 21.0744 151.172 26.759 158.143 26.759C161.564 26.759 164.664 25.3906 166.938 23.1697C164.722 25.1079 161.827 26.2835 158.661 26.2835V26.279Z" fill="black"/>
</g>
<path d="M158.818 14.1927C160.499 12.923 162.181 11.6487 163.862 10.379C164.032 10.2489 163.862 9.95726 163.693 10.0874C162.011 11.3571 160.33 12.6313 158.648 13.9011C158.479 14.0312 158.648 14.3228 158.818 14.1927Z" fill="#D7504D"/>
<path d="M156.423 18.6738C157.297 17.2157 158.171 15.7575 159.045 14.2948C159.103 14.1961 159.112 14.0526 159.045 13.9538C157.689 11.9124 156.329 9.87544 154.973 7.83399C154.737 7.47506 154.157 7.81156 154.393 8.17498C155.749 10.2164 157.11 12.2534 158.465 14.2948V13.9538C157.591 15.412 156.717 16.8702 155.843 18.3329C155.62 18.7053 156.2 19.0418 156.423 18.6738Z" fill="#263238"/>
<path d="M135.303 85.0501C136.655 84.9469 138.006 84.8437 139.362 84.7405C139.576 84.7226 139.576 84.3861 139.362 84.404C138.01 84.5072 136.659 84.6104 135.303 84.7136C135.089 84.7315 135.089 85.068 135.303 85.0501Z" fill="#263238"/>
<path d="M136.017 78.0683C137.793 78.7862 139.585 79.4592 141.392 80.0784C141.597 80.1501 141.682 79.8226 141.481 79.7553C139.67 79.1317 137.877 78.4631 136.107 77.7453C135.906 77.6645 135.821 77.9876 136.017 78.0683Z" fill="#263238"/>
<path d="M140.664 72.8773C141.721 73.8913 142.778 74.9053 143.836 75.9193C143.992 76.0674 144.228 75.8296 144.072 75.6815C143.015 74.6675 141.958 73.6535 140.901 72.6395C140.745 72.4915 140.508 72.7293 140.664 72.8773Z" fill="#263238"/>
<path d="M123.718 97.6934H117.255L116.363 86.5439H124.36L123.718 97.6934Z" fill="#B97964"/>
<path d="M124.734 86.2471H115.988V86.9694H124.734V86.2471Z" fill="#E0E0E0"/>
<path d="M116.426 86.252C116.426 86.252 117.086 84.7713 117.22 84.704C117.353 84.6367 123.95 85.4758 123.95 85.4758L124.36 86.3865L116.426 86.252Z" fill="#E0E0E0"/>
<g opacity="0.2">
<path d="M116.663 86.2838H124.066C124.28 86.2838 124.28 85.9473 124.066 85.9473H116.663C116.448 85.9473 116.448 86.2838 116.663 86.2838Z" fill="black"/>
</g>
<path d="M100.311 99.8957C100.423 100.003 102.073 100.753 102.706 100.968C103.344 101.183 108.326 101.04 108.027 100.434C107.728 99.8284 107.501 99.7208 106.417 99.6131C105.329 99.5054 104.321 99.5054 104.579 99.2227C104.838 98.9401 108.027 98.4017 108.923 98.6888C109.824 98.976 111.434 99.5458 111.845 98.976C112.255 98.4061 111.581 98.0113 111.581 98.0113C111.581 98.0113 112.482 97.9395 112.143 97.4415C111.804 96.9435 109.445 95.0142 108.361 94.8033C107.273 94.588 102.684 95.6423 101.538 95.759C101.194 95.7949 98.9953 96.266 98.9953 96.266L98.1836 100.102L100.307 99.9047L100.311 99.8957Z" fill="#B97964"/>
<path d="M100.178 94.5301C99.8431 94.5301 79.7151 93.3546 76.2051 92.5156C72.6951 91.6766 55.8809 83.5557 55.8809 83.5557C55.8809 83.5557 56.6569 96.6299 56.9111 96.6299C57.1653 96.6299 70.4071 101.754 77.61 102.09C84.8129 102.427 100.182 101.588 100.182 101.588V94.5301H100.178Z" fill="#263238"/>
<path opacity="0.3" d="M71.5302 101.242L67.2754 97.455L60.5898 87.3555C60.5898 87.3555 63.7029 90.1193 66.816 93.7535C70.0049 97.473 75.455 102.153 75.62 101.906L71.5302 101.242Z" fill="black"/>
<g opacity="0.3">
<path d="M66.9596 93.1172C65.247 90.4027 62.9724 88.0921 60.341 86.275C60.1626 86.1538 59.9975 86.4455 60.1715 86.5666C62.7538 88.3478 64.9883 90.6226 66.6697 93.2877C66.7857 93.4716 67.0756 93.3011 66.9596 93.1172Z" fill="black"/>
</g>
<path d="M85.1508 114.352C62.5386 94.9474 70.8788 92.6099 55.8798 83.5557L48.1863 82.6943C48.1863 82.6943 43.4542 81.8911 42.9815 81.6758L42.3348 83.3987C41.8575 83.8429 61.4102 111.934 62.2576 112.387C63.1094 112.84 85.512 114.657 85.1508 114.352Z" fill="#263238"/>
<path d="M29.7803 93.9327C29.3566 90.2491 28.5226 86.5521 28.9909 82.873L24.6513 79.4766C22.7246 80.6611 21.4981 82.5455 20.9852 84.5196C20.4723 86.4938 20.6239 88.5531 21.0566 90.5408C21.3375 91.8284 21.7211 93.2193 21.0298 94.3903C20.615 95.0948 19.8613 95.6152 19.4064 96.2972C18.6615 97.4144 18.7998 98.8097 19.2413 100.035C20.1333 102.516 22.1939 104.674 24.8654 105.926C25.2088 106.087 25.5701 106.235 25.9626 106.253C26.9393 106.294 27.6752 105.517 28.1301 104.782C30.1683 101.511 30.2085 97.6163 29.7848 93.9327H29.7803Z" fill="#263238"/>
<path d="M23.7423 80.8226C20.2412 81.545 18.1763 85.3721 19.599 88.7102C20.326 90.4107 21.8335 91.5458 23.1581 92.7527C24.6343 94.0943 26.1998 95.9966 25.6245 98.1458C25.5665 98.3566 25.8921 98.4464 25.9456 98.2355C26.9312 94.5519 22.8147 92.4387 20.8656 90.1056C19.5722 88.5577 19.0995 86.4848 19.7997 84.5556C20.4419 82.7923 22.0208 81.5225 23.8315 81.1457C24.0412 81.1008 23.952 80.7778 23.7423 80.8226Z" fill="#263238"/>
<path d="M77.3907 146.141L68.0604 148.604C67.4984 148.752 67.1728 149.34 67.3378 149.896C67.485 150.398 67.989 150.713 68.5019 150.618L70.8702 150.192C70.9995 150.17 71.0887 150.044 71.0709 149.909L71.0307 149.645L77.5691 148.021L77.3951 146.141H77.3907Z" fill="#263238"/>
<path d="M66.6016 141.716C66.6016 141.716 70.843 144.157 75.9007 144.565H83.8885C83.8885 144.565 90.0478 144.054 92.7684 141.716V139.962H66.606V141.716H66.6016Z" fill="#263238"/>
<path opacity="0.6" d="M66.6016 141.716C66.6016 141.716 70.843 144.157 75.9007 144.565H83.8885C83.8885 144.565 90.0478 144.054 92.7684 141.716V139.962H66.606V141.716H66.6016Z" fill="white"/>
<path d="M81.8907 142.389H77.8945V187.049H81.8907V142.389Z" fill="#263238"/>
<path d="M56.9414 190.06V189.145C56.9414 188.207 57.5747 187.39 58.4801 187.162L79.2637 181.935V187.049L61.388 190.06H56.9414Z" fill="#263238"/>
<path d="M102.219 190.06V189.145C102.219 188.207 101.585 187.39 100.68 187.162L79.8965 181.935V187.049L97.7722 190.06H102.219Z" fill="#263238"/>
<path d="M97.1172 192.425C97.1172 194.583 98.8566 196.332 101.002 196.332C103.147 196.332 104.887 194.583 104.887 192.425C104.887 190.266 103.147 188.517 101.002 188.517C98.8566 188.517 97.1172 190.266 97.1172 192.425Z" fill="#263238"/>
<path d="M62.9978 192.425C62.9978 194.583 61.2584 196.332 59.1132 196.332C56.9679 196.332 55.2285 194.583 55.2285 192.425C55.2285 190.266 56.9679 188.517 59.1132 188.517C61.2584 188.517 62.9978 190.266 62.9978 192.425Z" fill="#263238"/>
<path d="M82.2296 160.417H77.5555C76.6412 160.417 75.9008 159.672 75.9008 158.752V141.416H83.8887V158.752C83.8887 159.672 83.1483 160.417 82.234 160.417H82.2296Z" fill="#263238"/>
<path opacity="0.6" d="M82.2296 160.417H77.5555C76.6412 160.417 75.9008 159.672 75.9008 158.752V141.416H83.8887V158.752C83.8887 159.672 83.1483 160.417 82.234 160.417H82.2296Z" fill="white"/>
<path d="M75.7035 144.946C78.5089 145.099 81.3187 145.058 84.1195 144.821C84.3336 144.803 84.3336 144.466 84.1195 144.484C81.3187 144.722 78.5089 144.762 75.7035 144.61C75.4894 144.596 75.4894 144.933 75.7035 144.946Z" fill="#263238"/>
<path d="M58.3596 137.09C60.768 135.785 61.6555 132.756 60.3354 130.347C53.6677 118.183 47.3211 87.7276 45.0331 84.403C41.5052 79.2792 22.3228 85.8163 24.6643 90.137C26.5776 93.668 45.0955 124.222 51.8257 135.314C53.1904 137.561 56.0582 138.338 58.3596 137.09Z" fill="#407BFF"/>
<path opacity="0.3" d="M58.3596 137.09C60.768 135.785 61.6555 132.756 60.3354 130.347C53.6677 118.183 47.3211 87.7276 45.0331 84.403C41.5052 79.2792 22.3228 85.8163 24.6643 90.137C26.5776 93.668 45.0955 124.222 51.8257 135.314C53.1904 137.561 56.0582 138.338 58.3596 137.09Z" fill="black"/>
<path opacity="0.3" d="M29.5215 84.9012C29.5215 84.9012 31.9968 86.7183 34.6549 86.7497H36.6486L36.4657 89.5898L39.9222 87.813L39.0079 84.1025H31.2252C31.1761 84.1025 29.5215 84.9012 29.5215 84.9012Z" fill="black"/>
<path d="M27.9284 86.9602C29.253 88.6427 30.5821 90.3297 31.8309 92.0661C31.9691 92.259 32.1074 92.4519 32.2367 92.6494C32.2813 92.7167 32.317 92.784 32.3616 92.8468C32.3705 92.8602 32.4018 92.9051 32.3884 92.8961C32.3705 92.8872 32.4597 92.7301 32.5445 92.7167C32.3349 92.7436 32.3304 93.0801 32.5445 93.0532C32.9325 92.9993 32.5623 92.5237 32.4642 92.3757C32.1386 91.8866 31.7818 91.42 31.4295 90.9489C30.5642 89.7958 29.6856 88.6562 28.7981 87.5211C28.5885 87.2519 28.3788 86.9827 28.1648 86.7135C28.031 86.543 27.7946 86.7852 27.9284 86.9513V86.9602Z" fill="#263238"/>
<path d="M123.521 187.611C123.4 187.256 121.309 179.62 121.309 179.62L128.391 176.941L130.064 186.063L125.943 189.055L123.521 187.611Z" fill="#B97964"/>
<path d="M130.759 185.695H128.436C127.909 185.695 127.423 185.969 127.111 186.409C125.769 188.298 124.765 187.584 123.307 185.807C122.379 185.695 122.129 186.795 122.053 187.091L120.314 193.614C120.162 194.157 120.47 194.727 120.996 194.884C121.09 194.911 121.188 194.924 121.286 194.924H139.706C142.636 194.924 143.243 191.878 142.034 191.595C136.606 190.357 132.766 188.71 131.089 187.082C130.777 186.795 131.098 186.584 130.759 185.7V185.695Z" fill="#263238"/>
<path d="M135.121 185.497C135.206 185.201 135.148 184.878 134.97 184.627C134.885 184.483 134.733 184.398 134.568 184.412C133.676 184.452 132.209 187.395 132.048 187.732C132.026 187.763 132.021 187.808 132.035 187.844C132.057 187.916 132.129 187.952 132.195 187.929C132.864 187.615 133.498 187.229 134.091 186.781C134.559 186.475 134.92 186.022 135.121 185.493V185.497ZM134.555 184.708C134.626 184.699 134.689 184.739 134.72 184.802C134.845 184.986 134.885 185.219 134.831 185.435C134.613 186.256 133.221 187.086 132.445 187.498C133.074 186.3 134.064 184.73 134.55 184.703L134.555 184.708Z" fill="#407BFF"/>
<path d="M132.294 187.898C132.762 187.05 133.328 184.726 132.784 184.165C132.673 184.044 132.468 183.963 132.124 184.165C130.755 185.022 131.964 187.79 132.039 187.889C132.057 187.938 132.102 187.974 132.151 187.974C132.178 187.961 132.205 187.943 132.222 187.916L132.289 187.893L132.294 187.898ZM132.227 184.394C132.481 184.232 132.543 184.318 132.566 184.349C132.914 184.672 132.597 186.485 132.151 187.494C131.897 186.826 131.339 185.094 132.133 184.457L132.222 184.394H132.227Z" fill="#407BFF"/>
<path d="M132.2 187.844C131.469 187.947 130.791 188.396 130.398 189.042" stroke="#407BFF" stroke-linecap="round" stroke-linejoin="round"/>
<path d="M133.521 188.867C132.789 188.97 132.111 189.419 131.719 190.065" stroke="#407BFF" stroke-linecap="round" stroke-linejoin="round"/>
<path d="M135.157 189.729C134.426 189.832 133.748 190.28 133.355 190.926" stroke="#407BFF" stroke-linecap="round" stroke-linejoin="round"/>
<path d="M148.609 183.402C148.341 183.138 143.043 177.265 143.043 177.265L148.364 171.611L153.939 179.01L151.477 183.582L148.614 183.402H148.609Z" fill="#B97964"/>
<path d="M154.499 178.212L152.363 179.28C151.881 179.522 151.556 179.989 151.462 180.527C151.065 182.833 149.825 182.658 147.702 181.738C146.801 182.066 147.06 183.161 147.118 183.461L148.407 190.102C148.509 190.658 149.04 191.026 149.593 190.923C149.691 190.905 149.785 190.873 149.874 190.824C152.465 189.527 153.692 188.913 156.921 187.297L166.791 182.362C169.48 181.016 168.691 178.01 167.46 178.311C161.93 179.697 157.67 179.984 155.409 179.298C154.999 179.186 155.195 178.849 154.495 178.212H154.499Z" fill="#263238"/>
<path d="M158.415 176.031C158.362 175.726 158.165 175.461 157.889 175.322C157.751 175.232 157.568 175.228 157.425 175.313C156.622 175.757 156.582 179.069 156.582 179.441C156.582 179.481 156.591 179.522 156.618 179.549C156.667 179.602 156.752 179.602 156.805 179.549C157.278 178.961 157.693 178.324 158.036 177.651C158.33 177.162 158.46 176.592 158.411 176.022L158.415 176.031ZM157.55 175.582C157.612 175.542 157.688 175.546 157.746 175.591C157.942 175.699 158.081 175.887 158.13 176.107C158.29 176.942 157.385 178.328 156.854 179.051C156.903 177.691 157.113 175.829 157.554 175.582H157.55Z" fill="#407BFF"/>
<path d="M156.88 179.477C156.934 178.503 156.425 176.161 155.681 175.91C155.525 175.851 155.302 175.874 155.074 176.215C154.195 177.615 156.532 179.53 156.644 179.589C156.684 179.625 156.738 179.634 156.787 179.616C156.809 179.593 156.822 179.562 156.827 179.53L156.88 179.477ZM155.266 176.372C155.426 176.112 155.525 176.156 155.56 176.174C156.024 176.305 156.532 178.072 156.573 179.18C156.042 178.696 154.762 177.404 155.212 176.466L155.266 176.372Z" fill="#407BFF"/>
<path d="M156.801 179.127C156.114 179.594 155.651 180.379 155.57 181.209" stroke="#407BFF" stroke-width="0.25" stroke-linecap="round" stroke-linejoin="round"/>
<path d="M158.62 179.468C157.933 179.939 157.469 180.72 157.389 181.55" stroke="#407BFF" stroke-width="0.25" stroke-linecap="round" stroke-linejoin="round"/>
<path d="M160.69 179.486C160.003 179.957 159.539 180.738 159.459 181.568" stroke="#407BFF" stroke-width="0.25" stroke-linecap="round" stroke-linejoin="round"/>
<path d="M111.322 122.406C111.322 122.406 118.993 123.465 122.825 125.735C126.66 128.006 152.542 171.841 152.542 171.841L142.681 178.459L123.235 151.48L111.322 122.406Z" fill="#005197"/>
<path d="M74.1392 106.505C74.1392 106.505 81.467 113.513 82.7872 113.836C84.1073 114.159 116.045 120.764 118.779 123.864C123.81 129.566 132.155 178.821 131.713 178.646L117.548 181.334C117.548 181.334 108.044 137.957 106.287 135.525C106.287 135.525 88.5673 135.772 78.0239 135.449C67.476 135.126 67.0389 137.234 62.6458 129.54L55.541 114.446L74.1392 106.514V106.505Z" fill="#005197"/>
<path opacity="0.3" d="M52.1699 107.94C52.1699 107.94 57.6111 114.801 63.7392 117.793C69.8672 120.786 75.2192 123.953 76.5572 133.649C76.5572 133.649 63.4716 132.895 63.7392 132.581C64.0068 132.272 52.1699 107.94 52.1699 107.94Z" fill="black"/>
<path opacity="0.3" d="M128.547 158.851C128.31 158.523 121.736 126.865 119.047 124.133C119.841 124.407 120.59 124.676 121.156 124.913C126.558 137.463 130.018 150.259 131.736 163.27L128.547 158.851Z" fill="black"/>
<path opacity="0.3" d="M82.6091 113.76C81.222 113.863 68.627 116.102 68.627 116.102C68.627 116.102 72.5562 113.836 76.6951 113.369C79.6387 113.037 82.6091 113.76 82.6091 113.76Z" fill="black"/>
<path d="M38.565 84.6725C38.565 84.6725 29.1856 86.4044 25.2564 80.2621C22.674 76.2241 21.0194 73.7878 21.9158 70.1087C24.1101 61.0905 31.6252 60.7809 33.5252 61.252C34.8677 61.584 37.7979 62.7685 39.4347 64.3478C47.5608 72.1681 45.2818 73.4693 45.478 75.6139C45.6787 77.7585 38.5605 84.677 38.5605 84.677L38.565 84.6725Z" fill="#263238"/>
<path d="M38.8725 74.9502C40.5807 78.0236 44.1531 83.3089 47.3153 83.3852C47.3153 83.3852 47.1324 86.5797 44.2869 92.556C42.6412 93.5117 41.66 90.8914 41.66 90.8914C41.8072 87.9347 38.1634 84.0716 35.9824 82.5013L38.8725 74.9502Z" fill="#B97964"/>
<path opacity="0.2" d="M37.5898 80.4727H42.7724C43.1604 81.0066 43.6242 81.3924 44.0212 81.7828C42.7991 82.5635 40.0161 82.8282 38.8297 81.8366C38.3391 81.4597 37.9199 80.9976 37.5898 80.4727Z" fill="black"/>
<path d="M27.4013 76.1793C31.3797 80.1186 32.9853 81.8684 37.0751 82.2319C43.1987 82.7748 47.3286 77.3414 44.6526 72.3566C42.2531 67.8834 36.1296 62.1763 30.4475 63.9306C26.6208 64.9581 24.3418 68.9109 25.3631 72.7604C25.711 74.0706 26.4157 75.255 27.4013 76.1793Z" fill="#B97964"/>
<path d="M30.6224 81.0702C31.898 81.4112 33.1602 81.1689 34.0254 80.6574C35.3277 79.8902 34.1815 77.7007 32.7811 77.0142C31.5189 76.3995 29.8732 76.7944 29.0659 77.9968C28.272 79.1813 29.1685 80.6798 30.6224 81.0702Z" fill="#B97964"/>
<path d="M33.3648 70.5806C33.4317 70.5537 33.4807 70.4998 33.5075 70.4325C33.8643 69.3378 34.841 69.1224 34.8544 69.1179C35.0016 69.0865 35.0863 68.9474 35.0417 68.8039C34.9971 68.6603 34.8455 68.5706 34.6983 68.602C34.6492 68.6109 33.4227 68.8801 32.9767 70.2396C32.9321 70.3742 33.0169 70.5268 33.1641 70.5806C33.2354 70.6075 33.3068 70.603 33.3692 70.5806H33.3648Z" fill="#263238"/>
<path d="M38.1099 65.0611C38.1233 65.0027 38.1099 64.9444 38.0698 64.8906C37.9851 64.7874 37.8156 64.7604 37.6907 64.8367C36.4374 65.5815 36.4374 66.6583 36.4419 66.7032C36.4419 66.8333 36.5668 66.932 36.7184 66.9275C36.8701 66.923 36.9905 66.8154 36.986 66.6852C36.986 66.6449 36.9949 65.8103 37.994 65.2181C38.0564 65.1777 38.0966 65.1239 38.1099 65.0611Z" fill="#263238"/>
<path d="M37.9062 69.9199C37.9062 69.9199 39.998 70.7724 41.617 70.9967C41.8979 71.0371 42.0585 71.3422 41.9426 71.5979C41.6393 72.253 40.9078 72.6568 40.9078 72.6568L37.9107 69.9244L37.9062 69.9199Z" fill="#A24E3F"/>
<path d="M31.011 63.6969C38.3298 78.3594 34.3247 79.4362 38.0176 84.3985C34.0348 82.7923 30.6675 80.531 27.6838 77.3499C26.1183 75.8199 25.3646 74.1374 24.6465 72.0646C24.0578 69.9469 24.7402 67.0754 26.3458 65.7339C26.9078 65.2224 30.2572 63.6475 31.011 63.7014V63.6969Z" fill="#263238"/>
<path d="M35.4129 73.0615C35.7206 73.3486 36.1756 73.5909 36.6037 73.4832C36.7777 73.4384 36.9338 73.3217 37.0096 73.1557C37.0899 72.9762 37.0854 72.7698 37.0274 72.5814C36.9471 72.3301 36.791 72.1058 36.6037 71.9219C36.5368 71.859 36.4342 71.8546 36.3673 71.9219C36.3004 71.9892 36.3004 72.0968 36.3673 72.1596C36.4967 72.2853 36.6171 72.4378 36.6795 72.5949C36.6885 72.6128 36.7063 72.6666 36.7152 72.7025C36.7197 72.7205 36.7241 72.7384 36.7286 72.7564C36.7286 72.7654 36.7286 72.7698 36.7286 72.7788C36.7375 72.8102 36.7286 72.7698 36.7286 72.7878C36.7286 72.8237 36.7331 72.8551 36.7286 72.891C36.7286 72.9044 36.7241 72.9448 36.7286 72.9089C36.7286 72.9269 36.7241 72.9448 36.7152 72.9628C36.7063 72.9807 36.7063 72.9987 36.6974 73.0121C36.7108 72.9807 36.6974 73.0121 36.6885 73.0256C36.6795 73.039 36.6706 73.0525 36.6617 73.066C36.6795 73.039 36.6572 73.0704 36.6439 73.0839C36.6394 73.0884 36.6082 73.1153 36.6216 73.1063C36.6394 73.0929 36.6037 73.1198 36.5948 73.1243C36.5814 73.1333 36.568 73.1377 36.5547 73.1467C36.5324 73.1557 36.5814 73.1377 36.5547 73.1467C36.5457 73.1467 36.5324 73.1557 36.5234 73.1557C36.5101 73.1602 36.4922 73.1647 36.4788 73.1692C36.4655 73.1692 36.4253 73.1781 36.461 73.1692C36.4253 73.1692 36.3852 73.1736 36.3495 73.1692C36.3317 73.1692 36.3138 73.1692 36.296 73.1692C36.2648 73.1692 36.2871 73.1692 36.296 73.1692C36.2871 73.1692 36.2781 73.1692 36.2737 73.1692C36.2291 73.1602 36.1845 73.1512 36.1443 73.1377C35.9659 73.0794 35.7875 72.9673 35.6404 72.8327C35.5735 72.7698 35.4709 72.7654 35.404 72.8327C35.3415 72.8955 35.3371 73.0076 35.404 73.0704L35.4129 73.0615Z" fill="#263238"/>
<path d="M38.806 69.3187C39.1093 69.5969 39.5553 69.8302 39.9746 69.718C40.1485 69.6732 40.3046 69.5565 40.3804 69.3905C40.4607 69.211 40.4607 69.0136 40.4072 68.8252C40.3358 68.5784 40.1797 68.3586 39.9969 68.1836C39.93 68.1208 39.8274 68.1163 39.7605 68.1836C39.6936 68.2509 39.6936 68.3586 39.7605 68.4214C39.8318 68.4887 39.8943 68.556 39.9433 68.6278C39.9656 68.6637 39.9924 68.6995 40.0102 68.7354C40.0192 68.7534 40.0281 68.7713 40.037 68.7893C40.0415 68.7983 40.0459 68.8117 40.0504 68.8207C40.0638 68.8476 40.0415 68.8027 40.0504 68.8297C40.0638 68.8656 40.0771 68.9059 40.0905 68.9463C40.095 68.9643 40.0994 68.9822 40.1039 69.0001C40.1039 69.0091 40.1039 69.0136 40.1039 69.0226C40.1039 69.0001 40.1039 69.0136 40.1039 69.0316C40.1039 69.0675 40.1039 69.0989 40.1039 69.1303C40.1039 69.1751 40.1084 69.1168 40.1039 69.1482C40.1039 69.1662 40.095 69.1841 40.0905 69.2021C40.0905 69.211 40.0682 69.2604 40.0861 69.2245C40.0816 69.2379 40.0727 69.2514 40.0638 69.2649C40.0548 69.2783 40.0459 69.2918 40.037 69.3008C40.0593 69.2738 40.0325 69.3052 40.0192 69.3187C40.0147 69.3232 39.9835 69.3501 39.9969 69.3411C40.0147 69.3277 39.979 69.3546 39.9701 69.3591C39.9567 69.3681 39.9433 69.3725 39.93 69.3815C39.9077 69.395 39.9567 69.3725 39.93 69.3815C39.921 69.3815 39.9077 69.3905 39.8987 69.3905C39.8854 69.395 39.8675 69.3995 39.8541 69.404C39.8408 69.404 39.8006 69.4129 39.8363 69.4084C39.8006 69.4084 39.7649 69.4129 39.7248 69.4129C39.707 69.4129 39.6891 69.4129 39.6713 69.4129C39.6401 69.4129 39.6624 69.4129 39.6713 69.4129C39.6624 69.4129 39.6534 69.4129 39.649 69.4129C39.6044 69.404 39.5642 69.395 39.5196 69.3815C39.3457 69.3277 39.1673 69.22 39.029 69.0899C38.9621 69.0271 38.8596 69.0226 38.7927 69.0899C38.7302 69.1527 38.7258 69.2649 38.7927 69.3277L38.806 69.3187Z" fill="#263238"/>
<path d="M34.7348 62.58C37.2725 63.2664 39.9753 63.8004 42.2811 65.1194C43.2534 65.6758 44.1498 66.4116 44.6761 67.4256C45.2916 68.6146 45.2514 69.974 44.9571 71.2438C44.908 71.4547 45.2291 71.5444 45.2782 71.3335C45.7242 69.4132 45.4878 67.466 44.0562 66.0258C42.6245 64.5855 40.5729 63.8811 38.6819 63.3113C37.4063 62.9254 36.1129 62.6024 34.824 62.2569C34.6143 62.1986 34.5251 62.5261 34.7348 62.58Z" fill="#263238"/>
<path d="M41.3936 74.2818C41.5408 74.1024 41.8307 74.0754 42.0091 74.219C42.1875 74.3626 42.2232 74.6542 42.0849 74.8382C41.9467 75.0177 41.6568 75.058 41.4739 74.9234C41.2911 74.7843 41.2465 74.4927 41.3803 74.3088" fill="#263238"/>
<path d="M23.5354 67.3093C21.8718 68.9828 20.0254 70.939 20.1592 73.4919C20.2841 75.8295 22.2777 77.0858 24.3204 77.6466C24.53 77.7049 24.6192 77.3774 24.4096 77.3236C22.3892 76.7717 20.4446 75.5154 20.4892 73.1734C20.5338 70.8313 22.242 69.095 23.7718 67.5515C23.9234 67.399 23.6871 67.1612 23.5354 67.3138V67.3093Z" fill="#263238"/>
<g opacity="0.3">
<path d="M29.0162 62.9441C29.0474 65.9592 31.2328 68.3372 31.6699 71.2535C31.9509 73.1065 31.5406 74.9819 31.6788 76.8439C31.777 78.1899 32.2007 79.4866 32.9143 80.6307C33.7126 81.9049 34.8365 82.9413 36.1701 83.6233C36.3618 83.722 36.5313 83.4304 36.3395 83.3317C34.783 82.5331 33.5297 81.2454 32.7626 79.6616C31.8349 77.7368 31.9866 75.7222 32.0758 73.6494C32.1159 72.6623 32.1159 71.6663 31.9018 70.6972C31.7234 69.8671 31.4068 69.0775 31.0678 68.3013C30.3096 66.5784 29.3641 64.8824 29.3463 62.9486C29.3463 62.7333 29.0073 62.7333 29.0118 62.9486L29.0162 62.9441Z" fill="white"/>
</g>
<path d="M24.5663 79.7466C25.5921 81.5457 27.1486 83.0129 28.9995 83.9237C29.1913 84.0179 29.3608 83.7263 29.169 83.632C27.3672 82.7437 25.8552 81.3259 24.8562 79.5761C24.7492 79.3876 24.4593 79.5581 24.5663 79.7466Z" fill="#407BFF"/>
<path d="M112.759 102.184H109.383V196.337H112.759V102.184Z" fill="#263238"/>
<path opacity="0.7" d="M112.759 102.184H109.383V196.337H112.759V102.184Z" fill="white"/>
<path d="M191.929 102.184H188.553V196.337H191.929V102.184Z" fill="#263238"/>
<path opacity="0.7" d="M191.929 102.184H188.553V196.337H191.929V102.184Z" fill="white"/>
<path d="M196.187 97.6934H105.203V102.781H196.187V97.6934Z" fill="#263238"/>
<path d="M101.908 133.649H57.0759C55.176 133.649 53.6328 135.202 53.6328 137.113V138.253C53.6328 140.164 55.176 141.716 57.0759 141.716H103.041C104.941 141.716 106.484 140.164 106.484 138.253C106.484 135.709 104.432 133.649 101.908 133.649Z" fill="#407BFF"/>
<g opacity="0.3">
<path d="M101.908 133.649H57.0759C55.176 133.649 53.6328 135.202 53.6328 137.113V138.253C53.6328 140.164 55.176 141.716 57.0759 141.716H103.041C104.941 141.716 106.484 140.164 106.484 138.253C106.484 135.709 104.432 133.649 101.908 133.649Z" fill="black"/>
</g>
<path d="M63.0082 91.7841C62.0716 90.1734 60.2653 87.8942 56.5412 86.4315L45.8239 82.9678C46.7649 87.1135 39.3435 86.4225 39.3435 86.4225C37.8315 87.5936 37.332 89.2447 36.052 91.1201C35.945 91.4431 38.5674 94.2608 40.735 96.2529C51.7646 106.518 53.0937 112.405 55.9213 118.202C63.3338 115.021 73.9843 110.364 75.3803 107.851C66.0544 98.3885 65.769 96.5311 63.0082 91.7841Z" fill="#407BFF"/>
<path opacity="0.7" d="M63.0082 91.7841C62.0716 90.1734 60.2653 87.8942 56.5412 86.4315L45.8239 82.9678C46.7649 87.1135 39.3435 86.4225 39.3435 86.4225C37.8315 87.5936 37.332 89.2447 36.052 91.1201C35.945 91.4431 38.5674 94.2608 40.735 96.2529C51.7646 106.518 53.0937 112.405 55.9213 118.202C63.3338 115.021 73.9843 110.364 75.3803 107.851C66.0544 98.3885 65.769 96.5311 63.0082 91.7841Z" fill="white"/>
<path d="M53.7666 136.883C55.4525 134.855 57.9813 133.653 60.6038 133.577C60.8179 133.572 60.8179 133.236 60.6038 133.24C57.901 133.321 55.2741 134.55 53.5302 136.646C53.3919 136.812 53.6283 137.049 53.7666 136.883Z" fill="#263238"/>
<path d="M115.309 97.6929H141.802C142.346 97.6929 142.783 97.2487 142.783 96.7058C142.783 96.1584 142.341 95.7188 141.802 95.7188H115.309C114.765 95.7188 114.328 96.1629 114.328 96.7058C114.328 97.2532 114.77 97.6929 115.309 97.6929Z" fill="#263238"/>
<path opacity="0.7" d="M115.309 97.6929H141.802C142.346 97.6929 142.783 97.2487 142.783 96.7058C142.783 96.1584 142.341 95.7188 141.802 95.7188H115.309C114.765 95.7188 114.328 96.1629 114.328 96.7058C114.328 97.2532 114.77 97.6929 115.309 97.6929Z" fill="white"/>
<path d="M141.373 97.4954C141.935 97.7153 142.568 97.4326 142.787 96.8628L151.956 72.8679C152.175 72.3026 151.894 71.6655 151.328 71.4457C150.766 71.2258 150.132 71.5085 149.914 72.0783L140.744 96.0731C140.526 96.6385 140.806 97.2756 141.373 97.4954Z" fill="#263238"/>
<path opacity="0.7" d="M141.373 97.4954C141.935 97.7153 142.568 97.4326 142.787 96.8628L151.956 72.8679C152.175 72.3026 151.894 71.6655 151.328 71.4457C150.766 71.2258 150.132 71.5085 149.914 72.0783L140.744 96.0731C140.526 96.6385 140.806 97.2756 141.373 97.4954Z" fill="white"/>
<path d="M169.712 83.3489H162.737L161.773 71.3066H170.408L169.712 83.3489Z" fill="#B97964"/>
<path d="M170.809 70.9883H161.367V71.769H170.809V70.9883Z" fill="#E0E0E0"/>
<path d="M161.84 70.9929C161.84 70.9929 162.55 69.3957 162.697 69.3239C162.844 69.2476 169.962 70.1584 169.962 70.1584L170.404 71.141L161.836 70.9929H161.84Z" fill="#E0E0E0"/>
<g opacity="0.2">
<path d="M162.094 71.1588H170.086C170.301 71.1588 170.301 70.8223 170.086 70.8223H162.094C161.88 70.8223 161.88 71.1588 162.094 71.1588Z" fill="black"/>
</g>
<path d="M38.3122 84.5605L37.9509 87.5846L33.9414 92.2193L39.9267 104.54C43.7712 108.362 49.3775 115.263 49.4667 115.344L60.4606 133.757L74.1171 133.919C71.6106 120.418 60.3446 120.427 52.9722 109.215C48.1376 101.857 42.2281 86.6513 38.3122 84.5605Z" fill="#263238"/>
<g opacity="0.3">
<path d="M38.2269 87.4008C38.8647 89.0654 39.4891 90.7344 40.06 92.4214C40.4346 93.5341 40.6799 94.7635 41.3935 95.7147C42.0625 96.6075 43.3024 97.1504 44.2881 96.4235L44.0606 96.1947C42.8698 97.7606 44.0606 99.6899 45.3674 100.699C46.5939 101.646 48.2218 102.243 49.2387 103.441C49.3769 103.607 49.6133 103.364 49.475 103.203C48.641 102.22 47.3476 101.642 46.2906 100.946C44.8857 100.022 42.9991 98.142 44.3505 96.3652C44.4531 96.2351 44.2524 96.0377 44.123 96.1364C42.7003 97.1863 41.4426 95.4275 41.0055 94.2385C40.6621 93.3098 40.3945 92.3451 40.0644 91.4074C39.5783 90.0345 39.0743 88.6705 38.5525 87.3111C38.4767 87.1092 38.1511 87.1989 38.2314 87.4008H38.2269Z" fill="black"/>
</g>
<g opacity="0.3">
<path d="M58.5119 121.518C58.173 122.873 57.6957 124.187 57.0713 125.439C56.9777 125.632 57.2631 125.802 57.3612 125.61C57.9946 124.331 58.4896 122.989 58.833 121.607C58.8866 121.397 58.561 121.307 58.5119 121.518Z" fill="black"/>
</g>
<path d="M56.0322 150.187C57.892 154.786 58.793 159.779 58.6592 164.742C58.6547 164.984 58.454 165.181 58.2087 165.181C51.657 165.213 45.1052 165.85 38.665 167.07C38.2948 167.142 37.8756 167.2 37.5723 166.972C37.3448 166.797 37.2512 166.505 37.1709 166.231L33.2238 152.722C33.1435 152.448 33.3308 152.17 33.6118 152.143L55.5639 149.904C55.7646 149.882 55.9564 149.998 56.0322 150.187Z" fill="#407BFF"/>
<g opacity="0.8">
<path d="M56.0322 150.187C57.892 154.786 58.793 159.779 58.6592 164.742C58.6547 164.984 58.454 165.181 58.2087 165.181C51.657 165.213 45.1052 165.85 38.665 167.07C38.2948 167.142 37.8756 167.2 37.5723 166.972C37.3448 166.797 37.2512 166.505 37.1709 166.231L33.2238 152.722C33.1435 152.448 33.3308 152.17 33.6118 152.143L55.5639 149.904C55.7646 149.882 55.9564 149.998 56.0322 150.187Z" fill="white"/>
</g>
<path d="M47.5043 146.763C47.1073 146.22 46.1128 144.699 45.9879 144.61L45.7604 142.479L42.1835 144.035C42.1835 144.035 42.1612 146.297 42.1924 146.642C42.3039 147.791 42.1835 152.529 42.6072 153.561C43.0309 154.588 45.3724 156.535 45.9254 156.769C46.4785 157.002 46.3714 156.1 46.3714 156.1C46.3714 156.1 46.8888 156.688 47.3616 156.167C47.8343 155.647 46.9602 154.171 46.5052 153.341C46.0503 152.511 45.9433 149.267 46.1663 148.948C46.3937 148.634 46.7015 149.725 47.0226 150.774L48.5658 150.617C48.5658 150.617 47.7674 147.122 47.4998 146.759L47.5043 146.763Z" fill="#B97964"/>
<path d="M36.5418 89.8096C36.5418 89.8096 33.6294 91.7882 33.1968 93.6547C32.7642 95.5256 32.1487 118.305 32.5501 121.562C33.0541 125.658 41.0286 145.651 41.3854 145.772C41.7422 145.893 48.789 144.449 48.789 144.449C48.789 144.449 41.702 123.59 41.702 120.229C41.702 116.869 42.3889 102.426 42.6297 100.506C42.8706 98.5811 36.5374 89.8096 36.5374 89.8096H36.5418Z" fill="#263238"/>
<g opacity="0.3">
<path d="M34.3835 93.4846C37.51 96.19 39.9273 99.6582 41.3724 103.548C41.4482 103.75 41.7693 103.66 41.6935 103.458C40.2261 99.5147 37.791 95.9926 34.6199 93.2468C34.4594 93.1077 34.2185 93.341 34.3835 93.4846Z" fill="black"/>
</g>
<g opacity="0.3">
<path d="M61.6474 97.4551C59.7519 99.8779 58.405 102.408 56.7949 105.029C56.7949 105.029 59.908 102.372 60.9516 100.582C61.9908 98.7921 61.6519 97.4551 61.6519 97.4551H61.6474Z" fill="black"/>
</g>
<path d="M155.054 97.6563H181.194V94.2061H155.054C154.519 95.3546 154.519 96.5077 155.054 97.6563Z" fill="#407BFF"/>
<path opacity="0.8" d="M167.162 97.3596H181.193V94.4971H167.162C166.881 95.4527 166.881 96.4084 167.162 97.3596Z" fill="white"/>
<path opacity="0.2" d="M166.489 94.2012C166.222 95.287 166.204 96.4311 166.489 97.6514H155.054C154.519 96.4984 154.519 95.3498 155.054 94.2012H166.489Z" fill="black"/>
<g opacity="0.3">
<path d="M181.02 96.3506H167.034C166.82 96.3506 166.82 96.6871 167.034 96.6871H181.02C181.234 96.6871 181.234 96.3506 181.02 96.3506Z" fill="black"/>
</g>
<g opacity="0.3">
<path d="M181.091 95.4395H167.038C166.823 95.4395 166.823 95.776 167.038 95.776H181.091C181.305 95.776 181.305 95.4395 181.091 95.4395Z" fill="black"/>
</g>
<path d="M156.401 96.3364H164.148C164.184 96.3364 164.215 96.305 164.215 96.2691V95.6454C164.215 95.6095 164.184 95.5781 164.148 95.5781H156.401C156.365 95.5781 156.334 95.6095 156.334 95.6454V96.2691C156.334 96.3543 156.468 96.3543 156.468 96.2691C156.468 96.1031 156.41 95.8114 156.468 95.6589C156.428 95.7666 156.383 95.6948 156.521 95.7127C156.78 95.7486 157.074 95.7127 157.337 95.7127H163.296C163.528 95.7127 163.836 95.7666 164.063 95.7127C164.081 95.7127 164.117 95.7127 164.135 95.7127C164.179 95.7217 164.094 95.605 164.085 95.6903C164.077 95.8025 164.085 95.9236 164.085 96.0313C164.085 96.296 164.112 96.2332 163.849 96.1973C163.26 96.1255 162.618 96.1973 162.025 96.1973H156.405C156.321 96.1973 156.321 96.3319 156.405 96.3319L156.401 96.3364Z" fill="#263238"/>
<path d="M154.122 94.3225H182.564V92.3125H154.122C153.587 92.981 153.587 93.6495 154.122 94.3225Z" fill="#263238"/>
<path opacity="0.8" d="M168.527 94.1519H182.558V92.4873H168.527C168.246 93.0437 168.246 93.6 168.527 94.1519Z" fill="white"/>
<g opacity="0.3">
<path d="M182.382 93.4971H168.395C168.181 93.4971 168.181 93.8336 168.395 93.8336H182.382C182.596 93.8336 182.596 93.4971 182.382 93.4971Z" fill="black"/>
</g>
<g opacity="0.3">
<path d="M182.452 92.9629H168.399C168.185 92.9629 168.185 93.2994 168.399 93.2994H182.452C182.666 93.2994 182.666 92.9629 182.452 92.9629Z" fill="black"/>
</g>
<path d="M153.104 92.3899H175.538V89.4287H153.104C152.645 90.4158 152.645 91.4029 153.104 92.3899Z" fill="#407BFF"/>
<path opacity="0.8" d="M163.497 92.1345H175.539V89.6758H163.497C163.256 90.4968 163.256 91.3134 163.497 92.1345Z" fill="white"/>
<path opacity="0.2" d="M162.92 89.4238C162.688 90.3526 162.675 91.3396 162.92 92.385H153.108C152.649 91.398 152.649 90.4109 153.108 89.4238H162.92Z" fill="black"/>
<g opacity="0.3">
<path d="M175.391 91.2451H163.389C163.175 91.2451 163.175 91.5816 163.389 91.5816H175.391C175.605 91.5816 175.605 91.2451 175.391 91.2451Z" fill="black"/>
</g>
<g opacity="0.3">
<path d="M175.449 90.46H163.389C163.175 90.46 163.175 90.7965 163.389 90.7965H175.449C175.663 90.7965 175.663 90.46 175.449 90.46Z" fill="black"/>
</g>
<path d="M154.26 91.2681H160.91C160.946 91.2681 160.977 91.2367 160.977 91.2008V90.6669C160.977 90.631 160.946 90.5996 160.91 90.5996H154.26C154.225 90.5996 154.193 90.631 154.193 90.6669V91.2008C154.193 91.2861 154.327 91.2861 154.327 91.2008V90.6669L154.26 90.7342C156.2 90.7342 158.145 90.7342 160.085 90.7342H160.91L160.843 90.6669V91.2008L160.91 91.1335H154.26C154.176 91.1335 154.176 91.2681 154.26 91.2681Z" fill="#263238"/>
<path d="M177.644 86.0898H151.865V89.4235H177.644V86.0898Z" fill="#407BFF"/>
<path opacity="0.8" d="M177.644 86.0898H151.865V89.4235H177.644V86.0898Z" fill="white"/>
<g opacity="0.3">
<path d="M177.501 86.709H151.998C151.784 86.709 151.784 87.0455 151.998 87.0455H177.501C177.715 87.0455 177.715 86.709 177.501 86.709Z" fill="black"/>
</g>
<g opacity="0.3">
<path d="M177.501 87.5889H151.998C151.784 87.5889 151.784 87.9254 151.998 87.9254H177.501C177.715 87.9254 177.715 87.5889 177.501 87.5889Z" fill="black"/>
</g>
<g opacity="0.3">
<path d="M177.501 88.4678H151.998C151.784 88.4678 151.784 88.8043 151.998 88.8043H177.501C177.715 88.8043 177.715 88.4678 177.501 88.4678Z" fill="black"/>
</g>
<path opacity="0.2" d="M151.86 89.4238H166.859V86.0902H151.86V89.4238Z" fill="black"/>
<path d="M179.316 82.7832H153.537V86.1168H179.316V82.7832Z" fill="#407BFF"/>
<path opacity="0.8" d="M179.316 82.7832H153.537V86.1168H179.316V82.7832Z" fill="white"/>
<g opacity="0.3">
<path d="M179.178 83.4023H153.676C153.462 83.4023 153.462 83.7388 153.676 83.7388H179.178C179.393 83.7388 179.393 83.4023 179.178 83.4023Z" fill="black"/>
</g>
<g opacity="0.3">
<path d="M179.178 84.2822H153.676C153.462 84.2822 153.462 84.6187 153.676 84.6187H179.178C179.393 84.6187 179.393 84.2822 179.178 84.2822Z" fill="black"/>
</g>
<g opacity="0.3">
<path d="M179.178 85.166H153.676C153.462 85.166 153.462 85.5025 153.676 85.5025H179.178C179.393 85.5025 179.393 85.166 179.178 85.166Z" fill="black"/>
</g>
<path opacity="0.2" d="M153.542 86.1211H168.541V82.7875H153.542V86.1211Z" fill="black"/>
<path opacity="0.3" d="M109.383 102.781C109.383 102.781 109.383 105.343 109.383 105.28C109.383 105.218 112.759 106.747 112.759 106.747V102.781H109.383Z" fill="black"/>
<path opacity="0.3" d="M188.553 102.781V105.496L191.924 106.949V102.781H188.553Z" fill="black"/>
<path d="M204.772 180.096H179.551V183.057H204.772V180.096Z" fill="#407BFF"/>
<path opacity="0.6" d="M204.772 180.096H179.551V183.057H204.772V180.096Z" fill="white"/>
<g opacity="0.3">
<path d="M204.634 180.625H179.68C179.466 180.625 179.466 180.962 179.68 180.962H204.634C204.848 180.962 204.848 180.625 204.634 180.625Z" fill="black"/>
</g>
<g opacity="0.3">
<path d="M204.634 181.406H179.68C179.466 181.406 179.466 181.743 179.68 181.743H204.634C204.848 181.743 204.848 181.406 204.634 181.406Z" fill="black"/>
</g>
<g opacity="0.3">
<path d="M204.634 182.191H179.68C179.466 182.191 179.466 182.528 179.68 182.528H204.634C204.848 182.528 204.848 182.191 204.634 182.191Z" fill="black"/>
</g>
<path opacity="0.2" d="M179.551 183.057H194.229V180.095H179.551V183.057Z" fill="black"/>
<path d="M206.415 177.162H181.193V180.123H206.415V177.162Z" fill="#407BFF"/>
<path opacity="0.8" d="M206.415 177.162H181.193V180.123H206.415V177.162Z" fill="white"/>
<g opacity="0.3">
<path d="M206.276 177.691H181.323C181.109 177.691 181.109 178.028 181.323 178.028H206.276C206.49 178.028 206.49 177.691 206.276 177.691Z" fill="black"/>
</g>
<g opacity="0.3">
<path d="M206.276 178.477H181.323C181.109 178.477 181.109 178.813 181.323 178.813H206.276C206.49 178.813 206.49 178.477 206.276 178.477Z" fill="black"/>
</g>
<g opacity="0.3">
<path d="M206.276 179.258H181.323C181.109 179.258 181.109 179.594 181.323 179.594H206.276C206.49 179.594 206.49 179.258 206.276 179.258Z" fill="black"/>
</g>
<path opacity="0.2" d="M181.189 180.123H195.867V177.162H181.189V180.123Z" fill="black"/>
<path d="M206.352 171.239H181.131V174.2H206.352V171.239Z" fill="#407BFF"/>
<path opacity="0.8" d="M206.352 171.239H181.131V174.2H206.352V171.239Z" fill="white"/>
<g opacity="0.3">
<path d="M206.214 171.773H181.26C181.046 171.773 181.046 172.11 181.26 172.11H206.214C206.428 172.11 206.428 171.773 206.214 171.773Z" fill="black"/>
</g>
<g opacity="0.3">
<path d="M206.214 172.554H181.26C181.046 172.554 181.046 172.89 181.26 172.89H206.214C206.428 172.89 206.428 172.554 206.214 172.554Z" fill="black"/>
</g>
<g opacity="0.3">
<path d="M206.214 173.335H181.26C181.046 173.335 181.046 173.671 181.26 173.671H206.214C206.428 173.671 206.428 173.335 206.214 173.335Z" fill="black"/>
</g>
<path opacity="0.2" d="M181.131 174.2H195.809V171.239H181.131V174.2Z" fill="black"/>
<path d="M204.567 174.2H179.346V177.161H204.567V174.2Z" fill="#407BFF"/>
<path opacity="0.6" d="M204.567 174.2H179.346V177.161H204.567V174.2Z" fill="white"/>
<g opacity="0.3">
<path d="M204.429 174.734H179.475C179.261 174.734 179.261 175.071 179.475 175.071H204.429C204.643 175.071 204.643 174.734 204.429 174.734Z" fill="black"/>
</g>
<g opacity="0.3">
<path d="M204.429 175.515H179.475C179.261 175.515 179.261 175.851 179.475 175.851H204.429C204.643 175.851 204.643 175.515 204.429 175.515Z" fill="black"/>
</g>
<g opacity="0.3">
<path d="M204.429 176.296H179.475C179.261 176.296 179.261 176.632 179.475 176.632H204.429C204.643 176.632 204.643 176.296 204.429 176.296Z" fill="black"/>
</g>
<path opacity="0.2" d="M179.346 177.161H194.023V174.2H179.346V177.161Z" fill="black"/>
<path d="M208.113 182.582H175.85V197.59H208.113V182.582Z" fill="#407BFF"/>
<path opacity="0.2" d="M193.542 182.582H175.85V197.59H193.542V182.582Z" fill="black"/>
<path d="M193.475 182.581V197.248C193.475 197.464 193.809 197.464 193.809 197.248V182.581C193.809 182.366 193.475 182.366 193.475 182.581Z" fill="#263238"/>
</g>
<defs>
<clipPath id="clip0_2862_563">
<rect width="223" height="202" fill="white"/>
</clipPath>
</defs>
</svg>
